<svg width="197" height="52" viewBox="0 0 197 52" fill="none" xmlns="http://www.w3.org/2000/svg">
<path d="M43.654 13.8295L22.5445 1.64319L1.42725 13.8295V38.2175L22.5445 50.4038L43.654 38.2175V13.8295Z" stroke="#161616" stroke-width="1.4141" stroke-miterlimit="10"/>
<path d="M34.1202 18.9019L22.4752 12.1747L10.9462 18.7008L11.0622 31.9542L22.6994 38.6737L34.2285 32.1475L34.1202 18.9019Z" stroke="#161616" stroke-width="1.4141" stroke-miterlimit="10"/>
<path d="M13.3275 6.96301L43.6541 24.3378" stroke="#161616" stroke-width="1.4141" stroke-miterlimit="10"/>
<path d="M1.48157 26.3328L32.6587 44.5658" stroke="#161616" stroke-width="1.4141" stroke-miterlimit="10"/>
<path d="M57.795 26.3639V7.3584H61.0022V16.2012L68.5912 7.3584H72.4979L64.3282 16.6764L73.0522 26.3639H69.0135L61.0022 17.4814V26.3639H57.795Z" fill="#161616"/>
<path d="M73.8952 30.0198V23.3811H75.4922C76.7329 22.0084 76.9044 17.8906 76.9044 13.6276V7.3584H90.3798V23.3811H92.518V30.0198H89.324V26.3639H77.076V30.0198H73.8952ZM78.8446 23.3811H87.1859V10.3412H79.874V15.185C79.874 19.2764 79.4253 22.2196 78.8446 23.3811Z" fill="#161616"/>
<path d="M103.086 18.1018H95.1667V15.6073H103.086V18.1018Z" fill="#161616"/>
<path d="M109.722 26.3639H106.515V7.3584H118.816V10.3412H109.722V26.3639Z" fill="#161616"/>
<path d="M124.132 26.3639H120.925V7.3584H128.435C132.922 7.3584 135.166 9.66809 135.166 13.5484C135.166 17.4155 132.909 19.7251 128.435 19.7251H124.132V26.3639ZM124.132 10.3412V16.7555H128.408C130.705 16.7555 131.959 15.6073 131.959 13.5484C131.959 11.4762 130.705 10.3412 128.408 10.3412H124.132Z" fill="#161616"/>
<path d="M152.195 7.3584L143.247 26.3639H139.789L142.666 20.2531L136.265 7.3584H139.75L144.29 16.8347L148.751 7.3584H152.195Z" fill="#161616"/>
<path d="M157.346 26.3639H154.152V7.3584H169.04V26.3639H165.846V10.3412H157.346V26.3639Z" fill="#161616"/>
<path d="M175.932 26.3639H172.738V7.3584H187.626V26.3639H184.432V10.3412H175.932V26.3639Z" fill="#161616"/>
<path d="M63.5297 34.7333L59.9209 42.1997H59.1017L60.3201 39.659L57.795 34.7333H58.6402L60.7142 38.8398L62.6897 34.7333H63.5297Z" fill="#161616"/>
<path d="M66.8439 42.1997H66.0817V36.5999H66.8439V39.0368H70.0016V36.5999H70.7638V42.1997H70.0016V39.7627H66.8439V42.1997Z" fill="#161616"/>
<path d="M74.3966 36.4443C75.8899 36.4443 76.6262 37.2169 76.6262 38.7724V42.1997H75.8691V41.256C75.4699 41.9716 74.7699 42.3553 73.8366 42.3553C72.6389 42.3553 71.9026 41.7382 71.9026 40.7323C71.9026 39.5553 72.81 39.1042 74.184 38.9331L75.8691 38.7206C75.8691 37.6213 75.4077 37.1443 74.3862 37.1443C73.5359 37.1443 73.0277 37.4865 72.8359 38.1969L72.1152 38.0258C72.3796 37.0043 73.1885 36.4443 74.3966 36.4443ZM75.8691 39.3531L74.2566 39.5502C73.1159 39.6953 72.6596 40.022 72.6596 40.6909C72.6596 41.339 73.1055 41.676 73.9714 41.676C74.941 41.676 75.6203 41.116 75.7965 40.2242C75.864 39.9442 75.8691 39.602 75.8691 39.3531Z" fill="#161616"/>
<path d="M80.2988 42.3553C78.6552 42.3553 77.6649 41.1886 77.6649 39.3998C77.6649 37.5954 78.6656 36.4443 80.304 36.4443C81.4396 36.4443 82.3366 37.0406 82.6477 37.9947L81.901 38.2332C81.6366 37.5695 81.0351 37.1754 80.2988 37.1754C79.1167 37.1754 78.4737 38.0258 78.4737 39.3998C78.4737 40.7427 79.0959 41.6242 80.2988 41.6242C81.0714 41.6242 81.6003 41.2612 81.8803 40.5975L82.6477 40.8257C82.2277 41.8212 81.4084 42.3553 80.2988 42.3553Z" fill="#161616"/>
<path d="M88.1636 41.6345C88.9983 41.6345 89.548 41.2405 89.8798 40.5561L90.6005 40.8205C90.1546 41.8056 89.2783 42.3553 88.1636 42.3553C86.5406 42.3553 85.4829 41.199 85.4829 39.3998C85.4829 37.5902 86.5199 36.4443 88.1324 36.4443C89.8124 36.4443 90.7664 37.6421 90.7094 39.6124H86.2969C86.3695 40.8879 87.0643 41.6345 88.1636 41.6345ZM86.3125 38.9746H89.9057C89.8124 37.8028 89.1798 37.1495 88.1324 37.1495C87.0954 37.1495 86.4369 37.8184 86.3125 38.9746Z" fill="#161616"/>
<path d="M94.183 42.3553C92.5393 42.3553 91.549 41.1886 91.549 39.3998C91.549 37.5954 92.5497 36.4443 94.1881 36.4443C95.3237 36.4443 96.2207 37.0406 96.5318 37.9947L95.7851 38.2332C95.5207 37.5695 94.9192 37.1754 94.183 37.1754C93.0008 37.1754 92.3578 38.0258 92.3578 39.3998C92.3578 40.7427 92.98 41.6242 94.183 41.6242C94.9555 41.6242 95.4844 41.2612 95.7644 40.5975L96.5318 40.8257C96.1118 41.8212 95.2926 42.3553 94.183 42.3553Z" fill="#161616"/>
<path d="M99.6654 42.1997H98.9032V37.3258H96.9329V36.5999H101.636V37.3258H99.6654V42.1997Z" fill="#161616"/>
<path d="M105.104 42.1997H102.62V36.5999H103.377V38.7309H105.104C106.374 38.7309 107.027 39.4516 107.027 40.4627C107.027 41.4738 106.374 42.1997 105.104 42.1997ZM103.377 41.536H105.015C105.866 41.536 106.265 41.0849 106.265 40.4627C106.265 39.8405 105.866 39.3946 105.015 39.3946H103.377V41.536Z" fill="#161616"/>
<path d="M111.003 44.6885H110.241V36.5999H111.003V37.5384C111.371 36.854 112.009 36.4443 112.947 36.4443C114.539 36.4443 115.498 37.6628 115.498 39.3946C115.498 41.1575 114.523 42.3553 112.947 42.3553C112.003 42.3553 111.371 41.9405 111.003 41.2612V44.6885ZM112.843 41.6242C114.088 41.6242 114.689 40.7168 114.689 39.3946C114.689 38.0465 114.077 37.1754 112.843 37.1754C111.589 37.1754 111.003 38.088 111.003 39.3946C111.003 40.7427 111.63 41.6242 112.843 41.6242Z" fill="#161616"/>
<path d="M119.01 41.6345C119.845 41.6345 120.395 41.2405 120.727 40.5561L121.447 40.8205C121.001 41.8056 120.125 42.3553 119.01 42.3553C117.387 42.3553 116.33 41.199 116.33 39.3998C116.33 37.5902 117.367 36.4443 118.979 36.4443C120.659 36.4443 121.613 37.6421 121.556 39.6124H117.144C117.216 40.8879 117.911 41.6345 119.01 41.6345ZM117.159 38.9746H120.753C120.659 37.8028 120.027 37.1495 118.979 37.1495C117.942 37.1495 117.284 37.8184 117.159 38.9746Z" fill="#161616"/>
<path d="M122.702 42.1997V36.5999H123.464V41.4738H125.927V36.5999H126.689V41.4738H129.152V36.5999H129.914V42.1997H122.702Z" fill="#161616"/>
<path d="M133.735 41.6345C134.57 41.6345 135.119 41.2405 135.451 40.5561L136.172 40.8205C135.726 41.8056 134.85 42.3553 133.735 42.3553C132.112 42.3553 131.054 41.199 131.054 39.3998C131.054 37.5902 132.091 36.4443 133.704 36.4443C135.384 36.4443 136.338 37.6421 136.281 39.6124H131.868C131.941 40.8879 132.636 41.6345 133.735 41.6345ZM131.884 38.9746H135.477C135.384 37.8028 134.751 37.1495 133.704 37.1495C132.667 37.1495 132.008 37.8184 131.884 38.9746Z" fill="#161616"/>
<path d="M138.189 42.1997H137.426V36.5999H138.189V39.0368H141.346V36.5999H142.108V42.1997H141.346V39.7627H138.189V42.1997Z" fill="#161616"/>
<path d="M147.245 36.5999H148.007V42.1997H147.245V37.808L144.315 42.1997H143.553V36.5999H144.315V40.9916L147.245 36.5999Z" fill="#161616"/>
<path d="M150.012 42.1997H149.208L150.276 39.9442C149.556 39.6902 149.182 39.0939 149.182 38.3369C149.182 37.3258 149.841 36.5999 151.111 36.5999H153.595V42.1997H152.833V40.0687H151.111C151.085 40.0687 151.059 40.0687 151.033 40.0687L150.012 42.1997ZM152.833 37.2636H151.194C150.349 37.2636 149.945 37.7147 149.945 38.3369C149.945 38.9591 150.349 39.405 151.194 39.405H152.833V37.2636Z" fill="#161616"/>
<path d="M156.704 43.3767V41.4738H157.248C157.59 41.0642 157.684 40.0272 157.684 38.7413V36.5999H161.749V41.4738H162.475V43.3767H161.712V42.1997H157.466V43.3767H156.704ZM158.072 41.4738H160.986V37.3258H158.404V39.1665C158.404 40.1775 158.275 41.0538 158.072 41.4738Z" fill="#161616"/>
<path d="M162.99 42.2775V41.6034C163.073 41.6294 163.151 41.6449 163.223 41.6449C163.809 41.6449 163.991 40.7323 163.991 39.2287V36.5999H168.004V42.1997H167.242V37.3258H164.711V39.3998C164.711 41.4323 164.302 42.3553 163.452 42.3553C163.312 42.3553 163.156 42.3293 162.99 42.2775Z" fill="#161616"/>
<path d="M170.003 42.1997H169.199L170.267 39.9442C169.546 39.6902 169.173 39.0939 169.173 38.3369C169.173 37.3258 169.832 36.5999 171.102 36.5999H173.586V42.1997H172.823V40.0687H171.102C171.076 40.0687 171.05 40.0687 171.024 40.0687L170.003 42.1997ZM172.823 37.2636H171.185C170.34 37.2636 169.935 37.7147 169.935 38.3369C169.935 38.9591 170.34 39.405 171.185 39.405H172.823V37.2636Z" fill="#161616"/>
<path d="M179.722 42.1997H177.109V34.7333H179.645C181.081 34.7333 182.097 35.3347 182.097 36.6517C182.097 37.5954 181.542 38.1347 180.925 38.3421C181.594 38.4717 182.336 39.0887 182.336 40.1464C182.336 41.6034 181.231 42.1997 179.722 42.1997ZM179.655 35.4644H177.871V37.9947H179.868C180.687 37.9947 181.314 37.585 181.314 36.6984C181.314 35.8066 180.64 35.4644 179.655 35.4644ZM177.871 41.4686H179.722C180.785 41.4686 181.553 41.1523 181.553 40.079C181.553 39.1042 180.77 38.7102 179.883 38.7102H177.871V41.4686Z" fill="#161616"/>
<path d="M185.551 36.4443C187.044 36.4443 187.78 37.2169 187.78 38.7724V42.1997H187.023V41.256C186.624 41.9716 185.924 42.3553 184.991 42.3553C183.793 42.3553 183.057 41.7382 183.057 40.7323C183.057 39.5553 183.964 39.1042 185.338 38.9331L187.023 38.7206C187.023 37.6213 186.562 37.1443 185.54 37.1443C184.69 37.1443 184.182 37.4865 183.99 38.1969L183.269 38.0258C183.534 37.0043 184.342 36.4443 185.551 36.4443ZM187.023 39.3531L185.41 39.5502C184.27 39.6953 183.814 40.022 183.814 40.6909C183.814 41.339 184.259 41.676 185.125 41.676C186.095 41.676 186.774 41.116 186.95 40.2242C187.018 39.9442 187.023 39.602 187.023 39.3531Z" fill="#161616"/>
<path d="M191.453 42.3553C189.809 42.3553 188.819 41.1886 188.819 39.3998C188.819 37.5954 189.819 36.4443 191.458 36.4443C192.593 36.4443 193.49 37.0406 193.802 37.9947L193.055 38.2332C192.79 37.5695 192.189 37.1754 191.453 37.1754C190.271 37.1754 189.628 38.0258 189.628 39.3998C189.628 40.7427 190.25 41.6242 191.453 41.6242C192.225 41.6242 192.754 41.2612 193.034 40.5975L193.802 40.8257C193.382 41.8212 192.562 42.3553 191.453 42.3553Z" fill="#161616"/>
<path d="M196.116 40.3331H195.39V34.7333H196.116V40.3331ZM196.116 42.1997H195.39V41.3442H196.116V42.1997Z" fill="#161616"/>
</svg>
