<svg width="259" height="68" viewBox="0 0 259 68" fill="none" xmlns="http://www.w3.org/2000/svg">
<path d="M57.3089 18.1155L29.393 2L1.46692 18.1155V50.367L29.393 66.4825L57.3089 50.367V18.1155Z" stroke="#161616" stroke-width="1.87004" stroke-miterlimit="10"/>
<path d="M44.7013 24.8234L29.3015 15.9271L14.0552 24.5575L14.2086 42.0842L29.5981 50.9702L44.8444 42.3398L44.7013 24.8234Z" stroke="#161616" stroke-width="1.87004" stroke-miterlimit="10"/>
<path d="M17.2042 9.03516L57.309 32.0121" stroke="#161616" stroke-width="1.87004" stroke-miterlimit="10"/>
<path d="M1.53894 34.6503L42.7685 58.7622" stroke="#161616" stroke-width="1.87004" stroke-miterlimit="10"/>
<path d="M76.0095 34.6913V9.55786H80.2508V21.2519L90.2867 9.55786H95.453L84.6491 21.8802L96.1861 34.6913H90.8452L80.2508 22.9449V34.6913H76.0095Z" fill="#161616"/>
<path d="M97.3009 39.5259V30.7467H99.4128C101.053 28.9315 101.28 23.486 101.28 17.8484V9.55786H119.101V30.7467H121.928V39.5259H117.704V34.6913H101.507V39.5259H97.3009ZM103.846 30.7467H114.877V13.5024H105.207V19.9079C105.207 25.3186 104.614 29.2108 103.846 30.7467Z" fill="#161616"/>
<path d="M135.903 23.7652H125.431V20.4665H135.903V23.7652Z" fill="#161616"/>
<path d="M144.68 34.6913H140.438V9.55786H156.705V13.5024H144.68V34.6913Z" fill="#161616"/>
<path d="M163.736 34.6913H159.494V9.55786H169.426C175.36 9.55786 178.327 12.6123 178.327 17.7437C178.327 22.8576 175.342 25.912 169.426 25.912H163.736V34.6913ZM163.736 13.5024V21.9849H169.391C172.428 21.9849 174.086 20.4665 174.086 17.7437C174.086 15.0034 172.428 13.5024 169.391 13.5024H163.736Z" fill="#161616"/>
<path d="M200.847 9.55786L189.014 34.6913H184.441L188.246 26.6102L179.781 9.55786H184.389L190.393 22.0896L196.292 9.55786H200.847Z" fill="#161616"/>
<path d="M207.659 34.6913H203.435V9.55786H223.123V34.6913H218.9V13.5024H207.659V34.6913Z" fill="#161616"/>
<path d="M232.238 34.6913H228.014V9.55786H247.702V34.6913H243.478V13.5024H232.238V34.6913Z" fill="#161616"/>
<path d="M83.5933 45.7594L78.8209 55.6332H77.7376L79.3489 52.2734L76.0096 45.7594H77.1273L79.87 51.19L82.4825 45.7594H83.5933Z" fill="#161616"/>
<path d="M87.9761 55.6332H86.9681V48.2279H87.9761V51.4506H92.1519V48.2279H93.1599V55.6332H92.1519V52.4105H87.9761V55.6332Z" fill="#161616"/>
<path d="M97.964 48.0222C99.9388 48.0222 100.912 49.0438 100.912 51.1009V55.6332H99.9114V54.3853C99.3834 55.3315 98.4577 55.8389 97.2235 55.8389C95.6396 55.8389 94.6659 55.023 94.6659 53.6927C94.6659 52.1362 95.8658 51.5397 97.6829 51.3134L99.9114 51.0323C99.9114 49.5787 99.3011 48.9478 97.9503 48.9478C96.8258 48.9478 96.1538 49.4004 95.9001 50.3398L94.947 50.1135C95.2967 48.7627 96.3664 48.0222 97.964 48.0222ZM99.9114 51.8688L97.7789 52.1294C96.2704 52.3214 95.667 52.7534 95.667 53.6379C95.667 54.495 96.2567 54.9407 97.4018 54.9407C98.684 54.9407 99.5822 54.2002 99.8154 53.0208C99.9045 52.6505 99.9114 52.198 99.9114 51.8688Z" fill="#161616"/>
<path d="M105.769 55.8389C103.596 55.8389 102.286 54.2962 102.286 51.9305C102.286 49.5444 103.609 48.0222 105.776 48.0222C107.278 48.0222 108.464 48.8107 108.875 50.0723L107.888 50.3878C107.538 49.5101 106.743 48.989 105.769 48.989C104.206 48.989 103.356 50.1135 103.356 51.9305C103.356 53.7065 104.179 54.8721 105.769 54.8721C106.791 54.8721 107.49 54.3921 107.861 53.5145L108.875 53.8162C108.32 55.1327 107.237 55.8389 105.769 55.8389Z" fill="#161616"/>
<path d="M116.17 54.8858C117.274 54.8858 118.001 54.3647 118.439 53.4596L119.393 53.8093C118.803 55.1121 117.644 55.8389 116.17 55.8389C114.024 55.8389 112.625 54.3099 112.625 51.9305C112.625 49.5375 113.996 48.0222 116.129 48.0222C118.35 48.0222 119.612 49.6061 119.537 52.2117H113.701C113.797 53.8985 114.716 54.8858 116.17 54.8858ZM113.722 51.3683H118.474C118.35 49.8186 117.514 48.9547 116.129 48.9547C114.757 48.9547 113.887 49.8392 113.722 51.3683Z" fill="#161616"/>
<path d="M124.13 55.8389C121.957 55.8389 120.647 54.2962 120.647 51.9305C120.647 49.5444 121.97 48.0222 124.137 48.0222C125.639 48.0222 126.825 48.8107 127.236 50.0723L126.249 50.3878C125.899 49.5101 125.104 48.989 124.13 48.989C122.567 48.989 121.717 50.1135 121.717 51.9305C121.717 53.7065 122.539 54.8721 124.13 54.8721C125.152 54.8721 125.851 54.3921 126.221 53.5145L127.236 53.8162C126.681 55.1327 125.597 55.8389 124.13 55.8389Z" fill="#161616"/>
<path d="M131.38 55.6332H130.372V49.1878H127.767V48.2279H133.986V49.1878H131.38V55.6332Z" fill="#161616"/>
<path d="M138.572 55.6332H135.287V48.2279H136.288V51.046H138.572C140.252 51.046 141.116 51.9991 141.116 53.3362C141.116 54.6733 140.252 55.6332 138.572 55.6332ZM136.288 54.7556H138.455C139.58 54.7556 140.108 54.159 140.108 53.3362C140.108 52.5134 139.58 51.9237 138.455 51.9237H136.288V54.7556Z" fill="#161616"/>
<path d="M146.373 58.9245H145.365V48.2279H146.373V49.4689C146.86 48.5638 147.703 48.0222 148.944 48.0222C151.049 48.0222 152.318 49.6335 152.318 51.9237C152.318 54.255 151.029 55.8389 148.944 55.8389C147.696 55.8389 146.86 55.2904 146.373 54.3921V58.9245ZM148.807 54.8721C150.453 54.8721 151.248 53.6722 151.248 51.9237C151.248 50.1409 150.439 48.989 148.807 48.989C147.148 48.989 146.373 50.1958 146.373 51.9237C146.373 53.7065 147.203 54.8721 148.807 54.8721Z" fill="#161616"/>
<path d="M156.963 54.8858C158.067 54.8858 158.793 54.3647 159.232 53.4596L160.185 53.8093C159.596 55.1121 158.437 55.8389 156.963 55.8389C154.816 55.8389 153.418 54.3099 153.418 51.9305C153.418 49.5375 154.789 48.0222 156.922 48.0222C159.143 48.0222 160.405 49.6061 160.329 52.2117H154.494C154.59 53.8985 155.509 54.8858 156.963 54.8858ZM154.515 51.3683H159.267C159.143 49.8186 158.307 48.9547 156.922 48.9547C155.55 48.9547 154.679 49.8392 154.515 51.3683Z" fill="#161616"/>
<path d="M161.844 55.6332V48.2279H162.852V54.6733H166.109V48.2279H167.117V54.6733H170.374V48.2279H171.382V55.6332H161.844Z" fill="#161616"/>
<path d="M176.435 54.8858C177.539 54.8858 178.266 54.3647 178.705 53.4596L179.658 53.8093C179.068 55.1121 177.909 55.8389 176.435 55.8389C174.289 55.8389 172.89 54.3099 172.89 51.9305C172.89 49.5375 174.261 48.0222 176.394 48.0222C178.615 48.0222 179.877 49.6061 179.802 52.2117H173.967C174.062 53.8985 174.981 54.8858 176.435 54.8858ZM173.987 51.3683H178.739C178.615 49.8186 177.779 48.9547 176.394 48.9547C175.022 48.9547 174.152 49.8392 173.987 51.3683Z" fill="#161616"/>
<path d="M182.324 55.6332H181.316V48.2279H182.324V51.4506H186.5V48.2279H187.508V55.6332H186.5V52.4105H182.324V55.6332Z" fill="#161616"/>
<path d="M194.301 48.2279H195.309V55.6332H194.301V49.8255L190.427 55.6332H189.419V48.2279H190.427V54.0356L194.301 48.2279Z" fill="#161616"/>
<path d="M197.96 55.6332H196.897L198.31 52.6505C197.357 52.3145 196.863 51.526 196.863 50.5249C196.863 49.1878 197.734 48.2279 199.414 48.2279H202.698V55.6332H201.69V52.8151H199.414C199.38 52.8151 199.345 52.8151 199.311 52.8151L197.96 55.6332ZM201.69 49.1055H199.524C198.406 49.1055 197.871 49.7021 197.871 50.5249C197.871 51.3477 198.406 51.9374 199.524 51.9374H201.69V49.1055Z" fill="#161616"/>
<path d="M206.809 57.1897V54.6733H207.529C207.982 54.1316 208.105 52.7602 208.105 51.0597V48.2279H213.481V54.6733H214.441V57.1897H213.433V55.6332H207.817V57.1897H206.809ZM208.62 54.6733H212.473V49.1878H209.058V51.622C209.058 52.9591 208.887 54.1179 208.62 54.6733Z" fill="#161616"/>
<path d="M215.123 55.7361V54.8447C215.232 54.879 215.335 54.8996 215.431 54.8996C216.206 54.8996 216.446 53.6927 216.446 51.7043V48.2279H221.753V55.6332H220.745V49.1878H217.399V51.9305C217.399 54.6184 216.857 55.8389 215.733 55.8389C215.548 55.8389 215.342 55.8047 215.123 55.7361Z" fill="#161616"/>
<path d="M224.396 55.6332H223.334L224.746 52.6505C223.793 52.3145 223.299 51.526 223.299 50.5249C223.299 49.1878 224.17 48.2279 225.85 48.2279H229.135V55.6332H228.127V52.8151H225.85C225.816 52.8151 225.782 52.8151 225.747 52.8151L224.396 55.6332ZM228.127 49.1055H225.96C224.842 49.1055 224.307 49.7021 224.307 50.5249C224.307 51.3477 224.842 51.9374 225.96 51.9374H228.127V49.1055Z" fill="#161616"/>
<path d="M237.25 55.6332H233.794V45.7594H237.147C239.046 45.7594 240.39 46.5548 240.39 48.2964C240.39 49.5444 239.657 50.2575 238.841 50.5318C239.725 50.7032 240.706 51.5191 240.706 52.9179C240.706 54.8447 239.245 55.6332 237.25 55.6332ZM237.161 46.7262H234.802V50.0723H237.442C238.525 50.0723 239.355 49.5307 239.355 48.3581C239.355 47.1788 238.464 46.7262 237.161 46.7262ZM234.802 54.6664H237.25C238.656 54.6664 239.67 54.2482 239.67 52.8288C239.67 51.5397 238.635 51.0186 237.463 51.0186H234.802V54.6664Z" fill="#161616"/>
<path d="M244.957 48.0222C246.932 48.0222 247.906 49.0438 247.906 51.1009V55.6332H246.905V54.3853C246.377 55.3315 245.451 55.8389 244.217 55.8389C242.633 55.8389 241.659 55.023 241.659 53.6927C241.659 52.1362 242.859 51.5397 244.676 51.3134L246.905 51.0323C246.905 49.5787 246.294 48.9478 244.944 48.9478C243.819 48.9478 243.147 49.4004 242.893 50.3398L241.94 50.1135C242.29 48.7627 243.36 48.0222 244.957 48.0222ZM246.905 51.8688L244.772 52.1294C243.264 52.3214 242.66 52.7534 242.66 53.6379C242.66 54.495 243.25 54.9407 244.395 54.9407C245.677 54.9407 246.576 54.2002 246.809 53.0208C246.898 52.6505 246.905 52.198 246.905 51.8688Z" fill="#161616"/>
<path d="M252.763 55.8389C250.589 55.8389 249.279 54.2962 249.279 51.9305C249.279 49.5444 250.603 48.0222 252.769 48.0222C254.271 48.0222 255.457 48.8107 255.869 50.0723L254.881 50.3878C254.532 49.5101 253.736 48.989 252.763 48.989C251.199 48.989 250.349 50.1135 250.349 51.9305C250.349 53.7065 251.172 54.8721 252.763 54.8721C253.784 54.8721 254.484 54.3921 254.854 53.5145L255.869 53.8162C255.313 55.1327 254.23 55.8389 252.763 55.8389Z" fill="#161616"/>
<path d="M258.93 53.1648H257.97V45.7594H258.93V53.1648ZM258.93 55.6332H257.97V54.5019H258.93V55.6332Z" fill="#161616"/>
</svg>
